<mxfile host="app.diagrams.net" modified="2021-04-26T23:58:32.450Z" agent="5.0 (X11)" etag="iVkXk0P8ty_i8QQXK3cn" version="14.6.6" type="github">
  <diagram id="R2lEEEUBdFMjLlhIrx00" name="Page-1">
    <mxGraphModel dx="1422" dy="898" grid="1" gridSize="10" guides="1" tooltips="1" connect="1" arrows="1" fold="1" page="1" pageScale="1" pageWidth="850" pageHeight="1100" math="0" shadow="0" extFonts="Permanent Marker^https://fonts.googleapis.com/css?family=Permanent+Marker">
      <root>
        <mxCell id="0" />
        <mxCell id="1" parent="0" />
        <mxCell id="VdKbSGrQdmEdMPdkdZee-31" value="Song" style="rounded=1;whiteSpace=wrap;html=1;" vertex="1" parent="1">
          <mxGeometry x="230" y="115" width="120" height="60" as="geometry" />
        </mxCell>
        <mxCell id="VdKbSGrQdmEdMPdkdZee-32" value="&lt;div&gt;Artist&lt;/div&gt;" style="rounded=1;whiteSpace=wrap;html=1;" vertex="1" parent="1">
          <mxGeometry x="540" y="115" width="120" height="60" as="geometry" />
        </mxCell>
        <mxCell id="VdKbSGrQdmEdMPdkdZee-33" value="Album" style="rounded=1;whiteSpace=wrap;html=1;" vertex="1" parent="1">
          <mxGeometry x="120" y="350" width="120" height="60" as="geometry" />
        </mxCell>
        <mxCell id="VdKbSGrQdmEdMPdkdZee-34" value="&lt;div&gt;User Account&lt;/div&gt;" style="rounded=1;whiteSpace=wrap;html=1;" vertex="1" parent="1">
          <mxGeometry x="560" y="360" width="120" height="60" as="geometry" />
        </mxCell>
        <mxCell id="VdKbSGrQdmEdMPdkdZee-36" value="Title" style="rounded=1;whiteSpace=wrap;html=1;arcSize=50;" vertex="1" parent="1">
          <mxGeometry x="60" y="130" width="120" height="30" as="geometry" />
        </mxCell>
        <mxCell id="VdKbSGrQdmEdMPdkdZee-37" value="" style="endArrow=none;html=1;exitX=1;exitY=0.5;exitDx=0;exitDy=0;entryX=0;entryY=0.5;entryDx=0;entryDy=0;strokeWidth=5;" edge="1" parent="1" source="VdKbSGrQdmEdMPdkdZee-36" target="VdKbSGrQdmEdMPdkdZee-31">
          <mxGeometry width="50" height="50" relative="1" as="geometry">
            <mxPoint x="400" y="250" as="sourcePoint" />
            <mxPoint x="450" y="200" as="targetPoint" />
          </mxGeometry>
        </mxCell>
        <mxCell id="VdKbSGrQdmEdMPdkdZee-38" value="&lt;b&gt;&lt;u&gt;ID&lt;/u&gt;&lt;/b&gt;" style="rounded=1;whiteSpace=wrap;html=1;arcSize=50;" vertex="1" parent="1">
          <mxGeometry x="110" y="50" width="50" height="30" as="geometry" />
        </mxCell>
        <mxCell id="VdKbSGrQdmEdMPdkdZee-42" style="edgeStyle=orthogonalEdgeStyle;rounded=0;orthogonalLoop=1;jettySize=auto;html=1;exitX=0.5;exitY=1;exitDx=0;exitDy=0;entryX=0.5;entryY=0;entryDx=0;entryDy=0;strokeWidth=1;endArrow=none;endFill=0;" edge="1" parent="1" source="VdKbSGrQdmEdMPdkdZee-39" target="VdKbSGrQdmEdMPdkdZee-31">
          <mxGeometry relative="1" as="geometry" />
        </mxCell>
        <mxCell id="VdKbSGrQdmEdMPdkdZee-39" value="&lt;div&gt;Date&lt;/div&gt;&lt;div&gt;Published&lt;br&gt;&lt;/div&gt;" style="rounded=1;whiteSpace=wrap;html=1;arcSize=50;" vertex="1" parent="1">
          <mxGeometry x="245" y="30" width="90" height="30" as="geometry" />
        </mxCell>
        <mxCell id="VdKbSGrQdmEdMPdkdZee-40" value="" style="endArrow=none;html=1;strokeWidth=5;exitX=1;exitY=0.75;exitDx=0;exitDy=0;" edge="1" parent="1" source="VdKbSGrQdmEdMPdkdZee-38" target="VdKbSGrQdmEdMPdkdZee-31">
          <mxGeometry width="50" height="50" relative="1" as="geometry">
            <mxPoint x="400" y="250" as="sourcePoint" />
            <mxPoint x="450" y="200" as="targetPoint" />
          </mxGeometry>
        </mxCell>
        <mxCell id="VdKbSGrQdmEdMPdkdZee-43" value="&lt;font style=&quot;font-size: 32px&quot;&gt;&lt;b&gt;TODO: get starter diagram from David&lt;br&gt;&lt;/b&gt;&lt;/font&gt;" style="text;html=1;strokeColor=none;fillColor=none;align=center;verticalAlign=middle;whiteSpace=wrap;rounded=0;" vertex="1" parent="1">
          <mxGeometry x="180" y="230" width="460" height="70" as="geometry" />
        </mxCell>
      </root>
    </mxGraphModel>
  </diagram>
</mxfile>
